<svg height="1534" width="720" xmlns="http://www.w3.org/2000/svg">
<rect height="1534" fill="#555" width="720"></rect>
<text fill="#7f7" font-family="Courier New" font-size="12" xml:space="preserve">
<tspan x="10" y="26">11 megabytes installed</tspan>
<tspan x="10" y="42"></tspan>
<tspan x="10" y="58">node_modules</tspan>
<tspan x="10" y="74">└─┬ git-stats@2.10.5 </tspan>
<tspan x="10" y="90">  ├── abs@1.3.8 </tspan>
<tspan x="10" y="106">  ├─┬ bug-killer@4.4.4 </tspan>
<tspan x="10" y="122">  │ ├── ansi-parser@3.2.7 </tspan>
<tspan x="10" y="138">  │ ├─┬ couleurs@6.0.8 </tspan>
<tspan x="10" y="154">  │ │ ├─┬ ansy@1.0.9 </tspan>
<tspan x="10" y="170">  │ │ │ ├── ansi-styles@3.0.0 </tspan>
<tspan x="10" y="186">  │ │ │ ├── custom-return@1.0.6 </tspan>
<tspan x="10" y="202">  │ │ │ └─┬ supports-color@3.2.3 </tspan>
<tspan x="10" y="218">  │ │ │   └── has-flag@1.0.0 </tspan>
<tspan x="10" y="234">  │ │ └─┬ color-convert@1.9.0 </tspan>
<tspan x="10" y="250">  │ │   └── color-name@1.1.2 </tspan>
<tspan x="10" y="266">  │ └─┬ daty@1.0.11 </tspan>
<tspan x="10" y="282">  │   ├── add-subtract-date@1.0.9 </tspan>
<tspan x="10" y="298">  │   ├─┬ class-methods@1.0.6 </tspan>
<tspan x="10" y="314">  │   │ ├── exclude-arr@1.0.6 </tspan>
<tspan x="10" y="330">  │   │ └── static-methods@1.0.8 </tspan>
<tspan x="10" y="346">  │   ├── date-unit-ms@1.1.8 </tspan>
<tspan x="10" y="362">  │   ├── diff-dates@1.0.7 </tspan>
<tspan x="10" y="378">  │   └─┬ formatoid@1.0.7 </tspan>
<tspan x="10" y="394">  │     ├── days@1.1.0 </tspan>
<tspan x="10" y="410">  │     ├── fillo@1.0.8 </tspan>
<tspan x="10" y="426">  │     ├── months@1.0.1 </tspan>
<tspan x="10" y="442">  │     └── parse-it@1.0.7 </tspan>
<tspan x="10" y="458">  ├─┬ cli-gh-cal@1.4.5 </tspan>
<tspan x="10" y="474">  │ ├─┬ cli-box@6.0.7 </tspan>
<tspan x="10" y="490">  │ │ └── is-win@1.0.6 </tspan>
<tspan x="10" y="506">  │ ├── cli-size@1.0.5 </tspan>
<tspan x="10" y="522">  │ └── git-stats-colors@2.3.10 </tspan>
<tspan x="10" y="538">  ├─┬ cli-pie@2.3.2 </tspan>
<tspan x="10" y="554">  │ ├─┬ cli-circle@3.2.8 </tspan>
<tspan x="10" y="570">  │ │ └─┬ cli-graph@3.2.2 </tspan>
<tspan x="10" y="586">  │ │   └─┬ ul@5.0.0 </tspan>
<tspan x="10" y="602">  │ │     ├── deffy@2.0.0 </tspan>
<tspan x="10" y="618">  │ │     └── typpy@2.0.0 </tspan>
<tspan x="10" y="634">  │ ├─┬ couleurs@5.2.1 </tspan>
<tspan x="10" y="650">  │ │ ├── flat-colors@3.0.0 </tspan>
<tspan x="10" y="666">  │ │ ├── typpy@2.0.0 </tspan>
<tspan x="10" y="682">  │ │ └── x256@0.0.2 </tspan>
<tspan x="10" y="698">  │ └── flatcolors@3.0.0 </tspan>
<tspan x="10" y="714">  ├── deffy@2.2.2 </tspan>
<tspan x="10" y="730">  ├─┬ gitlog-parser@0.0.4 </tspan>
<tspan x="10" y="746">  │ └── byline@4.2.2 </tspan>
<tspan x="10" y="762">  ├─┬ gry@5.0.6 </tspan>
<tspan x="10" y="778">  │ ├─┬ exec-limiter@3.2.8 </tspan>
<tspan x="10" y="794">  │ │ └── limit-it@3.2.7 </tspan>
<tspan x="10" y="810">  │ └─┬ one-by-one@3.2.5 </tspan>
<tspan x="10" y="826">  │   ├── obj-def@1.0.5 </tspan>
<tspan x="10" y="842">  │   └── sliced@1.0.1 </tspan>
<tspan x="10" y="858">  ├── is-there@4.4.2 </tspan>
<tspan x="10" y="874">  ├── iterate-object@1.3.2 </tspan>
<tspan x="10" y="890">  ├── moment@2.18.1 </tspan>
<tspan x="10" y="906">  ├── r-json@1.2.7 </tspan>
<tspan x="10" y="922">  ├─┬ tilda@4.4.10 </tspan>
<tspan x="10" y="938">  │ ├── arrs-to-obj@1.0.6 </tspan>
<tspan x="10" y="954">  │ ├─┬ auto-parse@1.3.0 </tspan>
<tspan x="10" y="970">  │ │ └── lodash@4.17.4 </tspan>
<tspan x="10" y="986">  │ ├─┬ camelo@1.1.7 </tspan>
<tspan x="10" y="1002">  │ │ ├── regex-escape@3.4.6 </tspan>
<tspan x="10" y="1018">  │ │ └─┬ uc-first-array@1.1.6 </tspan>
<tspan x="10" y="1034">  │ │   └── ucfirst@1.0.0 </tspan>
<tspan x="10" y="1050">  │ ├─┬ clp@4.0.6 </tspan>
<tspan x="10" y="1066">  │ │ ├─┬ is-number@2.1.0 </tspan>
<tspan x="10" y="1082">  │ │ │ └─┬ kind-of@3.1.0 </tspan>
<tspan x="10" y="1098">  │ │ │   └── is-buffer@1.1.5 </tspan>
<tspan x="10" y="1114">  │ │ ├── last-char@1.3.7 </tspan>
<tspan x="10" y="1130">  │ │ └── match-it@1.0.6 </tspan>
<tspan x="10" y="1146">  │ ├─┬ debug-mode@1.0.4 </tspan>
<tspan x="10" y="1162">  │ │ └── semver@5.3.0 </tspan>
<tspan x="10" y="1178">  │ ├─┬ err@2.1.7 </tspan>
<tspan x="10" y="1194">  │ │ └── barbe@3.0.10 </tspan>
<tspan x="10" y="1210">  │ ├── indento@1.1.9 </tspan>
<tspan x="10" y="1226">  │ ├── is-empty-obj@1.0.8 </tspan>
<tspan x="10" y="1242">  │ ├── is-undefined@1.0.7 </tspan>
<tspan x="10" y="1258">  │ ├─┬ le-table@6.1.6 </tspan>
<tspan x="10" y="1274">  │ │ └─┬ overlap@2.2.7 </tspan>
<tspan x="10" y="1290">  │ │   ├── ansi-parser@3.0.0 </tspan>
<tspan x="10" y="1306">  │ │   ├─┬ cli-box@5.0.0 </tspan>
<tspan x="10" y="1322">  │ │   │ └─┬ ul@5.0.0 </tspan>
<tspan x="10" y="1338">  │ │   │   └── deffy@2.0.0 </tspan>
<tspan x="10" y="1354">  │ │   └─┬ couleurs@5.0.0 </tspan>
<tspan x="10" y="1370">  │ │     └── typpy@2.0.0 </tspan>
<tspan x="10" y="1386">  │ ├── prompt-sync@4.1.4 </tspan>
<tspan x="10" y="1402">  │ ├── promptify@1.0.1 </tspan>
<tspan x="10" y="1418">  │ ├── remove-blank-lines@1.0.6 </tspan>
<tspan x="10" y="1434">  │ └── wrap-text@1.0.6 </tspan>
<tspan x="10" y="1450">  ├─┬ typpy@2.3.8 </tspan>
<tspan x="10" y="1466">  │ └─┬ function.name@1.0.8 </tspan>
<tspan x="10" y="1482">  │   └── noop6@1.0.6 </tspan>
<tspan x="10" y="1498">  ├── ul@5.2.11 </tspan>
<tspan x="10" y="1514">  └── w-json@1.3.7</tspan>
</text>
</svg>
